<svg xmlns="http://www.w3.org/2000/svg" width="238" height="230" viewBox="0 0 238 230">
  <g fill="#FEFEFE" fill-rule="evenodd">
    <polygon points="77.166 175.818 77 230 118.833 198.183 119 144"/>
    <polygon points="119 198.017 161.832 230 162 175.985 119.167 144"/>
    <polygon points="213 193 195.4 142.357 144 126 161.599 176.641"/>
    <polygon points="144 125.543 195.173 142 238 110.46 186.828 94"/>
    <polygon points="27 192 44.013 141.44 94 125 76.987 175.559"/>
    <polygon points="0 110.577 42.884 142 94 125.424 51.117 94"/>
    <polygon points="86.831 0 72 50.872 104.17 94 119 43.131"/>
    <polygon points="19 51.004 72.428 51 105 93.994 51.572 94"/>
    <polygon points="219 51.022 165.578 51 133 93.978 186.42 94"/>
    <polygon points="119 43.125 133.817 94 166 50.878 151.186 0"/>
  </g>
</svg>
