<?xml version="1.0" encoding="UTF-8"?>
<svg id="Layer_1" data-name="Layer 1" xmlns="http://www.w3.org/2000/svg" width="1128.51" height="656.49" viewBox="0 0 1128.51 656.49">
  <g id="three" style="opacity: .15;">
    <path d="m100,53.36l-.04-.08h.01v-27.15h-.06l.02-.02-25.34-14.64-5.34,2.58L46.87,1.11l-1.9-1.11-1.16.57L2.01,20.89l-2.01.98v27.14l.58.34,22.9,13.23,1.91,1.1,1.16-.56,4.19-2.03,23.76,13.73.53.31.56-.27,43.7-21.14.71-.34h0v-.02ZM2.32,46.82v-22.35l21.96,12.69v23.19L2.32,47.67v-.84h0Zm24.28-9.6l47.88-23.13,21.84,12.62L26.6,60.52v-23.28h0v-.02Zm71.05-8.57v22.01l-20.72-11.97,20.72-10.04Zm-72.15,6.52L3.76,22.62,44.87,2.64l21.85,12.62-41.22,19.92h0Zm48.91,4.74l21.89,12.65-41.02,19.85-.16.08-.82-.48-21.04-12.15,41.14-19.94h.01Z" style="fill: #630e38;"/>
    <path d="m197.7,57.76l-.04-.08h0v-27.15h-.06l.02-.02-25.34-14.64-5.34,2.58-22.38-12.94-1.9-1.11-1.16.57-41.79,20.32-2.01.98v27.14l.58.34,22.9,13.23,1.91,1.1,1.16-.56,4.19-2.03,23.76,13.73.53.31.56-.27,43.7-21.14.71-.34h0v-.02Zm-97.68-6.54v-22.35l21.96,12.69v23.19l-21.96-12.69v-.84Zm24.28-9.6l47.88-23.13,21.84,12.62-69.73,33.8v-23.28h.01Zm71.05-8.57v22.01l-20.72-11.97,20.72-10.04Zm-72.15,6.52l-21.74-12.56,41.11-19.98,21.85,12.62s-41.22,19.92-41.22,19.92Zm48.91,4.74l21.89,12.65-41.02,19.85-.16.08-.82-.48-21.04-12.15,41.14-19.94h.01Z" style="fill: #630e38;"/>
    <path d="m295.4,62.17l-.04-.08h.01v-27.15h-.06l.02-.02-25.34-14.64-5.34,2.58-22.38-12.94-1.9-1.11-1.16.57-41.79,20.32-2.01.98v27.14l.58.34,22.9,13.23,1.91,1.1,1.16-.56,4.19-2.03,23.76,13.73.53.31.56-.27,43.7-21.14.71-.34h0v-.02Zm-97.68-6.54v-22.35l21.96,12.69v23.19l-21.96-12.69v-.84Zm24.28-9.6l47.88-23.13,21.84,12.62-69.73,33.8v-23.28h.01Zm71.05-8.57v22.01l-20.72-11.97,20.72-10.04Zm-72.15,6.52l-21.74-12.56,41.11-19.98,21.85,12.62s-41.22,19.92-41.22,19.92Zm48.91,4.74l21.89,12.65-41.02,19.85-.16.08-.82-.48-21.04-12.15,41.14-19.94h.01Z" style="fill: #630e38;"/>
    <path d="m588.5,75.37l-.04-.08h.01v-27.15h-.06l.02-.02-25.34-14.64-5.34,2.58-22.38-12.94-1.9-1.11-1.16.57-41.79,20.32-2.01.98v27.14l.58.34,22.9,13.23,1.91,1.1,1.16-.56,4.19-2.03,23.76,13.73.53.31.56-.27,43.7-21.14.71-.34h0v-.02Zm-97.68-6.54v-22.35l21.96,12.69v23.19l-21.96-12.69v-.84h0Zm24.28-9.6l47.88-23.13,21.84,12.62-69.73,33.8v-23.28h0Zm71.05-8.57v22.01l-20.72-11.97,20.72-10.04Zm-72.15,6.52l-21.74-12.56,41.11-19.98,21.85,12.62s-41.22,19.92-41.22,19.92Zm48.91,4.74l21.89,12.65-41.02,19.85-.16.08-.82-.48-21.04-12.15,41.14-19.94h0Z" style="fill: #630e38;"/>
    <path d="m783.9,84.17l-.04-.08h.01v-27.15h-.06l.02-.02-25.34-14.64-5.34,2.58-22.38-12.94-1.9-1.11-1.16.57-41.79,20.32-2.01.98v27.14l.58.34,22.9,13.23,1.91,1.1,1.16-.56,4.19-2.03,23.76,13.73.53.31.56-.27,43.7-21.14.71-.34h0v-.02Zm-97.68-6.54v-22.35l21.96,12.69v23.19l-21.96-12.69v-.84Zm24.28-9.6l47.88-23.13,21.84,12.62-69.73,33.8v-23.28h0Zm71.05-8.57v22.01l-20.72-11.97,20.72-10.04Zm-72.15,6.52l-21.74-12.56,41.11-19.98,21.85,12.62-41.22,19.92Zm48.91,4.74l21.89,12.65-41.02,19.85-.16.08-.82-.48-21.04-12.15,41.14-19.94h0Z" style="fill: #630e38;"/>
    <path d="m154,104.61l-.04-.08h0v-27.15h-.06l.02-.02-25.34-14.64-5.34,2.58-22.38-12.94-1.9-1.11-1.16.57-41.79,20.32-2.01.98v27.14l.58.34,22.9,13.23,1.91,1.1,1.16-.56,4.19-2.03,23.76,13.73.53.31.56-.27,43.7-21.14.71-.34h0v-.02Zm-97.68-6.54v-22.35l21.96,12.69v23.19l-21.96-12.69v-.84Zm24.28-9.6l47.88-23.13,21.84,12.62-69.73,33.8v-23.28h.01Zm71.05-8.57v22.01l-20.72-11.97,20.72-10.04Zm-72.15,6.52l-21.74-12.56,41.11-19.98,21.85,12.62-41.22,19.92Zm48.91,4.74l21.89,12.65-41.02,19.85-.16.08-.82-.48-21.04-12.15,41.14-19.94h.01Z" style="fill: #630e38;"/>
    <path d="m251.7,109.01l-.04-.08h0v-27.15h-.06l.02-.02-25.34-14.64-5.34,2.58-22.38-12.94-1.9-1.11-1.16.57-41.79,20.32-2.01.98v27.14l.58.34,22.9,13.23,1.91,1.1,1.16-.56,4.19-2.03,23.76,13.73.53.31.56-.27,43.7-21.14.71-.34h0v-.02Zm-97.68-6.54v-22.35l21.96,12.69v23.19l-21.96-12.69v-.84Zm24.28-9.6l47.88-23.13,21.84,12.62-69.73,33.8v-23.28h.01Zm71.05-8.57v22.01l-20.72-11.97,20.72-10.04Zm-72.15,6.52l-21.74-12.56,41.11-19.98,21.85,12.62-41.22,19.92Zm48.91,4.74l21.89,12.65-41.02,19.85-.16.08-.82-.48-21.04-12.15,41.14-19.94h.01Z" style="fill: #630e38;"/>
    <path d="m349.4,113.42l-.04-.08h.01v-27.15h-.06l.02-.02-25.34-14.64-5.34,2.58-22.38-12.94-1.9-1.11-1.16.57-41.79,20.32-2.01.98v27.14l.58.34,22.9,13.23,1.91,1.1,1.16-.56,4.19-2.03,23.76,13.73.53.31.56-.27,43.7-21.14.71-.34h0v-.02Zm-97.68-6.54v-22.35l21.96,12.69v23.19l-21.96-12.69v-.84Zm24.28-9.6l47.88-23.13,21.84,12.62-69.73,33.8v-23.28h.01Zm71.05-8.57v22.01l-20.72-11.97,20.72-10.04Zm-72.15,6.52l-21.74-12.56,41.11-19.98,21.85,12.62-41.22,19.92Zm48.91,4.74l21.89,12.65-41.02,19.85-.16.08-.82-.48-21.04-12.15,41.14-19.94h.01Z" style="fill: #630e38;"/>
    <path d="m642.5,126.62l-.04-.08h.01v-27.15h-.06l.02-.02-25.34-14.64-5.34,2.58-22.38-12.94-1.9-1.11-1.16.57-41.79,20.32-2.01.98v27.14l.58.34,22.9,13.23,1.91,1.1,1.16-.56,4.19-2.03,23.76,13.73.53.31.56-.27,43.7-21.14.71-.34h0v-.02Zm-97.68-6.54v-22.35l21.96,12.69v23.19l-21.96-12.69v-.84Zm24.28-9.6l47.88-23.13,21.84,12.62-69.73,33.8v-23.28h0Zm71.05-8.57v22.01l-20.72-11.97,20.72-10.04Zm-72.15,6.52l-21.74-12.56,41.11-19.98,21.85,12.62-41.22,19.92Zm48.91,4.74l21.89,12.65-41.02,19.85-.16.08-.82-.48-21.04-12.15,41.14-19.94h0Z" style="fill: #630e38;"/>
    <path d="m740.2,131.02l-.04-.08h.01v-27.15h-.06l.02-.02-25.34-14.64-5.34,2.58-22.38-12.94-1.9-1.11-1.16.57-41.79,20.32-2.01.98v27.14l.58.34,22.9,13.23,1.91,1.1,1.16-.56,4.19-2.03,23.76,13.73.53.31.56-.27,43.7-21.14.71-.34h0v-.02Zm-97.68-6.54v-22.35l21.96,12.69v23.19l-21.96-12.69v-.84Zm24.28-9.6l47.88-23.13,21.84,12.62-69.73,33.8v-23.28h0Zm71.05-8.57v22.01l-20.72-11.97,20.72-10.04Zm-72.15,6.52l-21.74-12.56,41.11-19.98,21.85,12.62-41.22,19.92h0Zm48.91,4.74l21.89,12.65-41.02,19.85-.16.08-.82-.48-21.04-12.15,41.14-19.94h0Z" style="fill: #630e38;"/>
    <path d="m837.9,135.42l-.04-.08h.01v-27.15h-.06l.02-.02-25.34-14.64-5.34,2.58-22.38-12.94-1.9-1.11-1.16.57-41.79,20.32-2.01.98v27.14l.58.34,22.9,13.23,1.91,1.1,1.16-.56,4.19-2.03,23.76,13.73.53.31.56-.27,43.7-21.14.71-.34h0v-.02Zm-97.68-6.54v-22.35l21.96,12.69v23.19l-21.96-12.69v-.84Zm24.28-9.6l47.88-23.13,21.84,12.62-69.73,33.8v-23.28h0Zm71.05-8.57v22.01l-20.72-11.97s20.72-10.04,20.72-10.04Zm-72.15,6.52l-21.74-12.56,41.11-19.98,21.85,12.62-41.22,19.92Zm48.91,4.74l21.89,12.65-41.02,19.85-.16.08-.82-.48-21.04-12.15,41.14-19.94h0Z" style="fill: #630e38;"/>
    <path d="m208,155.86l-.04-.08h0v-27.15h-.06l.02-.02-25.34-14.64-5.34,2.58-22.38-12.94-1.9-1.11-1.16.57-41.79,20.32-2.01.98v27.14l.58.34,22.9,13.23,1.91,1.1,1.16-.56,4.19-2.03,23.76,13.73.53.31.56-.27,43.7-21.14.71-.34h0v-.02Zm-97.68-6.54v-22.35l21.96,12.69v23.19l-21.96-12.69v-.84Zm24.28-9.6l47.88-23.13,21.84,12.62-69.73,33.8v-23.28h.01Zm71.05-8.57v22.01l-20.72-11.97,20.72-10.04Zm-72.15,6.52l-21.74-12.56,41.11-19.98,21.85,12.62-41.22,19.92h0Zm48.91,4.74l21.89,12.65-41.02,19.85-.16.08-.82-.48-21.04-12.15,41.14-19.94h.01Z" style="fill: #630e38;"/>
    <path d="m305.7,160.26l-.04-.08h.01v-27.15h-.06l.02-.02-25.34-14.64-5.34,2.58-22.38-12.94-1.9-1.11-1.16.57-41.79,20.32-2.01.98v27.14l.58.34,22.9,13.23,1.91,1.1,1.16-.56,4.19-2.03,23.76,13.73.53.31.56-.27,43.7-21.14.71-.34h0v-.02Zm-97.68-6.54v-22.35l21.96,12.69v23.19l-21.96-12.69v-.84Zm24.28-9.6l47.88-23.13,21.84,12.62-69.73,33.8v-23.28h.01Zm71.05-8.57v22.01l-20.72-11.97,20.72-10.04Zm-72.15,6.52l-21.74-12.56,41.11-19.98,21.85,12.62-41.22,19.92h0Zm48.91,4.74l21.89,12.65-41.02,19.85-.16.08-.82-.48-21.04-12.15,41.14-19.94h.01Z" style="fill: #630e38;"/>
    <path d="m403.4,164.67l-.04-.08h.01v-27.15h-.06l.02-.02-25.34-14.64-5.34,2.58-22.38-12.94-1.9-1.11-1.16.57-41.79,20.32-2.01.98v27.14l.58.34,22.9,13.23,1.91,1.1,1.16-.56,4.19-2.03,23.76,13.73.53.31.56-.27,43.7-21.14.71-.34h0v-.02Zm-97.68-6.54v-22.35l21.96,12.69v23.19l-21.96-12.69v-.84Zm24.28-9.6l47.88-23.13,21.84,12.62-69.73,33.8v-23.28h.01Zm71.05-8.57v22.01l-20.72-11.97,20.72-10.04Zm-72.15,6.52l-21.74-12.56,41.11-19.98,21.85,12.62-41.22,19.92h0Zm48.91,4.74l21.89,12.65-41.02,19.85-.16.08-.82-.48-21.04-12.15,41.14-19.94h.01Z" style="fill: #630e38;"/>
    <path d="m598.8,173.47l-.04-.08h.01v-27.15h-.06l.02-.02-25.34-14.64-5.34,2.58-22.38-12.94-1.9-1.11-1.16.57-41.79,20.32-2.01.98v27.14l.58.34,22.9,13.23,1.91,1.1,1.16-.56,4.19-2.03,23.76,13.73.53.31.56-.27,43.7-21.14.71-.34h0v-.02Zm-97.68-6.54v-22.35l21.96,12.69v23.19l-21.96-12.69v-.84h0Zm24.28-9.6l47.88-23.13,21.84,12.62-69.73,33.8v-23.28h0Zm71.05-8.57v22.01l-20.72-11.97,20.72-10.04Zm-72.15,6.52l-21.74-12.56,41.11-19.98,21.85,12.62-41.22,19.92h0Zm48.91,4.74l21.89,12.65-41.02,19.85-.16.08-.82-.48-21.04-12.15,41.14-19.94h0Z" style="fill: #630e38;"/>
    <path d="m696.5,177.87l-.04-.08h.01v-27.15h-.06l.02-.02-25.34-14.64-5.34,2.58-22.38-12.94-1.9-1.11-1.16.57-41.79,20.32-2.01.98v27.14l.58.34,22.9,13.23,1.91,1.1,1.16-.56,4.19-2.03,23.76,13.73.53.31.56-.27,43.7-21.14.71-.34h0v-.02Zm-97.68-6.54v-22.35l21.96,12.69v23.19l-21.96-12.69v-.84Zm24.28-9.6l47.88-23.13,21.84,12.62-69.73,33.8v-23.28h0Zm71.05-8.57v22.01l-20.72-11.97,20.72-10.04Zm-72.15,6.52l-21.74-12.56,41.11-19.98,21.85,12.62-41.22,19.92Zm48.91,4.74l21.89,12.65-41.02,19.85-.16.08-.82-.48-21.04-12.15,41.14-19.94h0Z" style="fill: #630e38;"/>
    <path d="m794.2,182.27l-.04-.08h.01v-27.15h-.06l.02-.02-25.34-14.64-5.34,2.58-22.38-12.94-1.9-1.11-1.16.57-41.79,20.32-2.01.98v27.14l.58.34,22.9,13.23,1.91,1.1,1.16-.56,4.19-2.03,23.76,13.73.53.31.56-.27,43.7-21.14.71-.34h0v-.02Zm-97.68-6.54v-22.35l21.96,12.69v23.19l-21.96-12.69v-.84Zm24.28-9.6l47.88-23.13,21.84,12.62-69.73,33.8v-23.28h0Zm71.05-8.57v22.01l-20.72-11.97,20.72-10.04Zm-72.15,6.52l-21.74-12.56,41.11-19.98,21.85,12.62-41.22,19.92h0Zm48.91,4.74l21.89,12.65-41.02,19.85-.16.08-.82-.48-21.04-12.15,41.14-19.94h0Z" style="fill: #630e38;"/>
    <path d="m164.3,202.71l-.04-.08h0v-27.15h-.06l.02-.02-25.34-14.64-5.34,2.58-22.38-12.94-1.9-1.11-1.16.57-41.79,20.32-2.01.98v27.14l.58.34,22.9,13.23,1.91,1.1,1.16-.56,4.19-2.03,23.76,13.73.53.31.56-.27,43.7-21.14.71-.34h0v-.02Zm-97.68-6.54v-22.35l21.96,12.69v23.19l-21.96-12.69v-.84Zm24.28-9.6l47.88-23.13,21.84,12.62-69.73,33.8v-23.28h.01Zm71.05-8.57v22.01l-20.72-11.97,20.72-10.04Zm-72.15,6.52l-21.74-12.56,41.11-19.98,21.85,12.62s-41.22,19.92-41.22,19.92Zm48.91,4.74l21.89,12.65-41.02,19.85-.16.08-.82-.48-21.04-12.15,41.14-19.94h.01Z" style="fill: #630e38;"/>
    <path d="m262,207.11l-.04-.08h.01v-27.15h-.06l.02-.02-25.34-14.64-5.34,2.58-22.38-12.94-1.9-1.11-1.16.57-41.79,20.32-2.01.98v27.14l.58.34,22.9,13.23,1.91,1.1,1.16-.56,4.19-2.03,23.76,13.73.53.31.56-.27,43.7-21.14.71-.34h0v-.02Zm-97.68-6.54v-22.35l21.96,12.69v23.19l-21.96-12.69v-.84Zm24.28-9.6l47.88-23.13,21.84,12.62-69.73,33.8v-23.28h.01Zm71.05-8.57v22.01l-20.72-11.97,20.72-10.04Zm-72.15,6.52l-21.74-12.56,41.11-19.98,21.85,12.62-41.22,19.92Zm48.91,4.74l21.89,12.65-41.02,19.85-.16.08-.82-.48-21.04-12.15,41.14-19.94h0Z" style="fill: #630e38;"/>
    <path d="m359.7,211.51l-.04-.08h.01v-27.15h-.06l.02-.02-25.34-14.64-5.34,2.58-22.38-12.94-1.9-1.11-1.16.57-41.79,20.32-2.01.98v27.14l.58.34,22.9,13.23,1.91,1.1,1.16-.56,4.19-2.03,23.76,13.73.53.31.56-.27,43.7-21.14.71-.34h0v-.02Zm-97.68-6.54v-22.35l21.96,12.69v23.19l-21.96-12.69v-.84Zm24.28-9.6l47.88-23.13,21.84,12.62-69.73,33.8v-23.28h.01Zm71.05-8.57v22.01l-20.72-11.97,20.72-10.04Zm-72.15,6.52l-21.74-12.56,41.11-19.98,21.85,12.62-41.22,19.92h0Zm48.91,4.74l21.89,12.65-41.02,19.85-.16.08-.82-.48-21.04-12.15,41.14-19.94h.01Z" style="fill: #630e38;"/>
    <path d="m652.8,224.72l-.04-.08h.01v-27.15h-.06l.02-.02-25.34-14.64-5.34,2.58-22.38-12.94-1.9-1.11-1.16.57-41.79,20.32-2.01.98v27.14l.58.34,22.9,13.23,1.91,1.1,1.16-.56,4.19-2.03,23.76,13.73.53.31.56-.27,43.7-21.14.71-.34h0v-.02Zm-97.68-6.54v-22.35l21.96,12.69v23.19l-21.96-12.69v-.84Zm24.28-9.6l47.88-23.13,21.84,12.62-69.73,33.8v-23.28h0Zm71.05-8.57v22.01l-20.72-11.97,20.72-10.04Zm-72.15,6.52l-21.74-12.56,41.11-19.98,21.85,12.62-41.22,19.92h0Zm48.91,4.74l21.89,12.65-41.02,19.85-.16.08-.82-.48-21.04-12.15,41.14-19.94h0Z" style="fill: #630e38;"/>
    <path d="m750.5,229.12l-.04-.08h.01v-27.15h-.06l.02-.02-25.34-14.64-5.34,2.58-22.38-12.94-1.9-1.11-1.16.57-41.79,20.32-2.01.98v27.14l.58.34,22.9,13.23,1.91,1.1,1.16-.56,4.19-2.03,23.76,13.73.53.31.56-.27,43.7-21.14.71-.34h0v-.02Zm-97.68-6.54v-22.35l21.96,12.69v23.19l-21.96-12.69v-.84Zm24.28-9.6l47.88-23.13,21.84,12.62-69.73,33.8v-23.28h0Zm71.05-8.57v22.01l-20.72-11.97,20.72-10.04Zm-72.15,6.52l-21.74-12.56,41.11-19.98,21.85,12.62-41.22,19.92Zm48.91,4.74l21.89,12.65-41.02,19.85-.16.08-.82-.48-21.04-12.15,41.14-19.94h0Z" style="fill: #630e38;"/>
    <path d="m848.2,233.52l-.04-.08h.01v-27.15h-.06l.02-.02-25.34-14.64-5.34,2.58-22.38-12.94-1.9-1.11-1.16.57-41.79,20.32-2.01.98v27.14l.58.34,22.9,13.23,1.91,1.1,1.16-.56,4.19-2.03,23.76,13.73.53.31.56-.27,43.7-21.14.71-.34h0v-.02Zm-97.68-6.54v-22.35l21.96,12.69v23.19l-21.96-12.69v-.84Zm24.28-9.6l47.88-23.13,21.84,12.62-69.73,33.8v-23.28h0Zm71.05-8.57v22.01l-20.72-11.97,20.72-10.04Zm-72.15,6.52l-21.74-12.56,41.11-19.98,21.85,12.62-41.22,19.92h0Zm48.91,4.74l21.89,12.65-41.02,19.85-.16.08-.82-.48-21.04-12.15,41.14-19.94h0Z" style="fill: #630e38;"/>
    <path d="m218.3,253.96l-.04-.08h0v-27.15h-.06l.02-.02-25.34-14.64-5.34,2.58-22.38-12.94-1.9-1.11-1.16.57-41.79,20.32-2.01.98v27.14l.58.34,22.9,13.23,1.91,1.1,1.16-.56,4.19-2.03,23.76,13.73.53.31.56-.27,43.7-21.14.71-.34h0v-.02Zm-97.68-6.54v-22.35l21.96,12.69v23.19l-21.96-12.69v-.84Zm24.28-9.6l47.88-23.13,21.84,12.62-69.73,33.8v-23.28h0Zm71.05-8.57v22.01l-20.72-11.97,20.72-10.04Zm-72.15,6.52l-21.74-12.56,41.11-19.98,21.85,12.62-41.22,19.92Zm48.91,4.74l21.89,12.65-41.02,19.85-.16.08-.82-.48-21.04-12.15,41.14-19.94h.01Z" style="fill: #630e38;"/>
    <path d="m316,258.36l-.04-.08h.01v-27.15h-.06l.02-.02-25.34-14.64-5.34,2.58-22.38-12.94-1.9-1.11-1.16.57-41.79,20.32-2.01.98v27.14l.58.34,22.9,13.23,1.91,1.1,1.16-.56,4.19-2.03,23.76,13.73.53.31.56-.27,43.7-21.14.71-.34h0v-.02Zm-97.68-6.54v-22.35l21.96,12.69v23.19l-21.96-12.69v-.84h0Zm24.28-9.6l47.88-23.13,21.84,12.62-69.73,33.8v-23.28h.01Zm71.05-8.57v22.01l-20.72-11.97,20.72-10.04Zm-72.15,6.52l-21.74-12.56,41.11-19.98,21.85,12.62-41.22,19.92Zm48.91,4.74l21.89,12.65-41.02,19.85-.16.08-.82-.48-21.04-12.15,41.14-19.94h.01Z" style="fill: #630e38;"/>
    <path d="m413.7,262.76l-.04-.08h.01v-27.15h-.06l.02-.02-25.34-14.64-5.34,2.58-22.38-12.94-1.9-1.11-1.16.57-41.79,20.32-2.01.98v27.14l.58.34,22.9,13.23,1.91,1.1,1.16-.56,4.19-2.03,23.76,13.73.53.31.56-.27,43.7-21.14.71-.34h0v-.02Zm-97.68-6.54v-22.35l21.96,12.69v23.19l-21.96-12.69v-.84Zm24.28-9.6l47.88-23.13,21.84,12.62-69.73,33.8v-23.28h.01Zm71.05-8.57v22.01l-20.72-11.97,20.72-10.04h0Zm-72.15,6.52l-21.74-12.56,41.11-19.98,21.85,12.62-41.22,19.92h0Zm48.91,4.74l21.89,12.65-41.02,19.85-.16.08-.82-.48-21.04-12.15,41.14-19.94h.01Z" style="fill: #630e38;"/>
    <path d="m511.4,267.17l-.04-.08h.01v-27.15h-.06l.02-.02-25.34-14.64-5.34,2.58-22.38-12.94-1.9-1.11-1.16.57-41.79,20.32-2.01.98v27.14l.58.34,22.9,13.23,1.91,1.1,1.16-.56,4.19-2.03,23.76,13.73.53.31.56-.27,43.7-21.14.71-.34h0v-.02Zm-97.68-6.54v-22.35l21.96,12.69v23.19l-21.96-12.69v-.84Zm24.28-9.6l47.88-23.13,21.84,12.62-69.73,33.8v-23.28h.01Zm71.05-8.57v22.01l-20.72-11.97,20.72-10.04h0Zm-72.15,6.52l-21.74-12.56,41.11-19.98,21.85,12.62-41.22,19.92h0Zm48.91,4.74l21.89,12.65-41.02,19.85-.16.08-.82-.48-21.04-12.15,41.14-19.94h.01Z" style="fill: #630e38;"/>
    <path d="m706.8,275.97l-.04-.08h.01v-27.15h-.06l.02-.02-25.34-14.64-5.34,2.58-22.38-12.94-1.9-1.11-1.16.57-41.79,20.32-2.01.98v27.14l.58.34,22.9,13.23,1.91,1.1,1.16-.56,4.19-2.03,23.76,13.73.53.31.56-.27,43.7-21.14.71-.34h0v-.02Zm-97.68-6.54v-22.35l21.96,12.69v23.19l-21.96-12.69v-.84Zm24.28-9.6l47.88-23.13,21.84,12.62-69.73,33.8v-23.28h0Zm71.05-8.57v22.01l-20.72-11.97,20.72-10.04h0Zm-72.15,6.52l-21.74-12.56,41.11-19.98,21.85,12.62-41.22,19.92h0Zm48.91,4.74l21.89,12.65-41.02,19.85-.16.08-.82-.48-21.04-12.15,41.14-19.94h0Z" style="fill: #630e38;"/>
    <path d="m804.5,280.37l-.04-.08h.01v-27.15h-.06l.02-.02-25.34-14.64-5.34,2.58-22.38-12.94-1.9-1.11-1.16.57-41.79,20.32-2.01.98v27.14l.58.34,22.9,13.23,1.91,1.1,1.16-.56,4.19-2.03,23.76,13.73.53.31.56-.27,43.7-21.14.71-.34h0v-.02Zm-97.68-6.54v-22.35l21.96,12.69v23.19l-21.96-12.69v-.84Zm24.28-9.6l47.88-23.13,21.84,12.62-69.73,33.8v-23.28h0Zm71.05-8.57v22.01l-20.72-11.97,20.72-10.04h0Zm-72.15,6.52l-21.74-12.56,41.11-19.98,21.85,12.62-41.22,19.92Zm48.91,4.74l21.89,12.65-41.02,19.85-.16.08-.82-.48-21.04-12.15,41.14-19.94h0Z" style="fill: #630e38;"/>
    <path d="m902.2,284.77l-.04-.08h.01v-27.15h-.06l.02-.02-25.34-14.64-5.34,2.58-22.38-12.94-1.9-1.11-1.16.57-41.79,20.32-2.01.98v27.14l.58.34,22.9,13.23,1.91,1.1,1.16-.56,4.19-2.03,23.76,13.73.53.31.56-.27,43.7-21.14.71-.34h0v-.02Zm-97.68-6.54v-22.35l21.96,12.69v23.19l-21.96-12.69v-.84Zm24.28-9.6l47.88-23.13,21.84,12.62-69.73,33.8v-23.28h0Zm71.05-8.57v22.01l-20.72-11.97,20.72-10.04Zm-72.15,6.52l-21.74-12.56,41.11-19.98,21.85,12.62-41.22,19.92h0Zm48.91,4.74l21.89,12.65-41.02,19.85-.16.08-.82-.48-21.04-12.15,41.14-19.94h0Z" style="fill: #630e38;"/>
    <path d="m174.6,300.81l-.04-.08h0v-27.15h-.06l.02-.02-25.34-14.64-5.34,2.58-22.38-12.94-1.9-1.11-1.16.57-41.79,20.32-2.01.98v27.14l.58.34,22.9,13.23,1.91,1.1,1.16-.56,4.19-2.03,23.76,13.73.53.31.56-.27,43.7-21.14.71-.34h0v-.02Zm-97.68-6.54v-22.35l21.96,12.69v23.19l-21.96-12.69v-.84Zm24.28-9.6l47.88-23.13,21.84,12.62-69.73,33.8v-23.28h.01Zm71.05-8.57v22.01l-20.72-11.97,20.72-10.04Zm-72.15,6.52l-21.74-12.56,41.11-19.98,21.85,12.62-41.22,19.92h0Zm48.91,4.74l21.89,12.65-41.02,19.85-.16.08-.82-.48-21.04-12.15,41.14-19.94h.01Z" style="fill: #630e38;"/>
    <path d="m272.3,305.21l-.04-.08h.01v-27.15h-.06l.02-.02-25.34-14.64-5.34,2.58-22.38-12.94-1.9-1.11-1.16.57-41.79,20.32-2.01.98v27.14l.58.34,22.9,13.23,1.91,1.1,1.16-.56,4.19-2.03,23.76,13.73.53.31.56-.27,43.7-21.14.71-.34h0v-.02Zm-97.68-6.54v-22.35l21.96,12.69v23.19l-21.96-12.69v-.84Zm24.28-9.6l47.88-23.13,21.84,12.62-69.73,33.8v-23.28h.01Zm71.05-8.57v22.01l-20.72-11.97,20.72-10.04Zm-72.15,6.52l-21.74-12.56,41.11-19.98,21.85,12.62-41.22,19.92h0Zm48.91,4.74l21.89,12.65-41.02,19.85-.16.08-.82-.48-21.04-12.15,41.14-19.94h0Z" style="fill: #630e38;"/>
    <path d="m370,309.61l-.04-.08h.01v-27.15h-.06l.02-.02-25.34-14.64-5.34,2.58-22.38-12.94-1.9-1.11-1.16.57-41.79,20.32-2.01.98v27.14l.58.34,22.9,13.23,1.91,1.1,1.16-.56,4.19-2.03,23.76,13.73.53.31.56-.27,43.7-21.14.71-.34h0v-.02Zm-97.68-6.54v-22.35l21.96,12.69v23.19l-21.96-12.69v-.84Zm24.28-9.6l47.88-23.13,21.84,12.62-69.73,33.8v-23.28h.01Zm71.05-8.57v22.01l-20.72-11.97,20.72-10.04Zm-72.15,6.52l-21.74-12.56,41.11-19.98,21.85,12.62-41.22,19.92h0Zm48.91,4.74l21.89,12.65-41.02,19.85-.16.08-.82-.48-21.04-12.15,41.14-19.94h.01Z" style="fill: #630e38;"/>
    <path d="m467.7,314.01l-.04-.08h.01v-27.15h-.06l.02-.02-25.34-14.64-5.34,2.58-22.38-12.94-1.9-1.11-1.16.57-41.79,20.32-2.01.98v27.14l.58.34,22.9,13.23,1.91,1.1,1.16-.56,4.19-2.03,23.76,13.73.53.31.56-.27,43.7-21.14.71-.34h0v-.02Zm-97.68-6.54v-22.35l21.96,12.69v23.19l-21.96-12.69v-.84Zm24.28-9.6l47.88-23.13,21.84,12.62-69.73,33.8v-23.28h.01Zm71.05-8.57v22.01l-20.72-11.97,20.72-10.04Zm-72.15,6.52l-21.74-12.56,41.11-19.98,21.85,12.62-41.22,19.92h0Zm48.91,4.74l21.89,12.65-41.02,19.85-.16.08-.82-.48-21.04-12.15,41.14-19.94h.01Z" style="fill: #630e38;"/>
    <path d="m663.1,322.82l-.04-.08h.01v-27.15h-.06l.02-.02-25.34-14.64-5.34,2.58-22.38-12.94-1.9-1.11-1.16.57-41.79,20.32-2.01.98v27.14l.58.34,22.9,13.23,1.91,1.1,1.16-.56,4.19-2.03,23.76,13.73.53.31.56-.27,43.7-21.14.71-.34h0v-.02Zm-97.68-6.54v-22.35l21.96,12.69v23.19l-21.96-12.69v-.84Zm24.28-9.6l47.88-23.13,21.84,12.62-69.73,33.8v-23.28h0Zm71.05-8.57v22.01l-20.72-11.97,20.72-10.04Zm-72.15,6.52l-21.74-12.56,41.11-19.98,21.85,12.62-41.22,19.92Zm48.91,4.74l21.89,12.65-41.02,19.85-.16.08-.82-.48-21.04-12.15,41.14-19.94h0Z" style="fill: #630e38;"/>
    <path d="m760.8,327.22l-.04-.08h.01v-27.15h-.06l.02-.02-25.34-14.64-5.34,2.58-22.38-12.94-1.9-1.11-1.16.57-41.79,20.32-2.01.98v27.14l.58.34,22.9,13.23,1.91,1.1,1.16-.56,4.19-2.03,23.76,13.73.53.31.56-.27,43.7-21.14.71-.34h0v-.02Zm-97.68-6.54v-22.35l21.96,12.69v23.19l-21.96-12.69v-.84Zm24.28-9.6l47.88-23.13,21.84,12.62-69.73,33.8v-23.28h0Zm71.05-8.57v22.01l-20.72-11.97,20.72-10.04Zm-72.15,6.52l-21.74-12.56,41.11-19.98,21.85,12.62-41.22,19.92h0Zm48.91,4.74l21.89,12.65-41.02,19.85-.16.08-.82-.48-21.04-12.15,41.14-19.94h0Z" style="fill: #630e38;"/>
    <path d="m858.5,331.62l-.04-.08h.01v-27.15h-.06l.02-.02-25.34-14.64-5.34,2.58-22.38-12.94-1.9-1.11-1.16.57-41.79,20.32-2.01.98v27.14l.58.34,22.9,13.23,1.91,1.1,1.16-.56,4.19-2.03,23.76,13.73.53.31.56-.27,43.7-21.14.71-.34h0v-.02Zm-97.68-6.54v-22.35l21.96,12.69v23.19l-21.96-12.69v-.84Zm24.28-9.6l47.88-23.13,21.84,12.62-69.73,33.8v-23.28h0Zm71.05-8.57v22.01l-20.72-11.97,20.72-10.04Zm-72.15,6.52l-21.74-12.56,41.11-19.98,21.85,12.62-41.22,19.92Zm48.91,4.74l21.89,12.65-41.02,19.85-.16.08-.82-.48-21.04-12.15,41.14-19.94h0Z" style="fill: #630e38;"/>
    <path d="m130.9,347.66l-.04-.08h0v-27.15h-.06l.02-.02-25.34-14.64-5.34,2.58-22.38-12.94-1.9-1.11-1.16.57-41.79,20.32-2.01.98v27.14l.58.34,22.9,13.23,1.91,1.1,1.16-.56,4.19-2.03,23.76,13.73.53.31.56-.27,43.7-21.14.71-.34h0v-.02Zm-97.68-6.54v-22.35l21.96,12.69v23.19l-21.96-12.69v-.84Zm24.28-9.6l47.88-23.13,21.84,12.62-69.73,33.8v-23.28h.01Zm71.05-8.57v22.01l-20.72-11.97,20.72-10.04Zm-72.15,6.52l-21.74-12.56,41.11-19.98,21.85,12.62-41.22,19.92Zm48.91,4.74l21.89,12.65-41.02,19.85-.16.08-.82-.48-21.04-12.15,41.14-19.94h.01Z" style="fill: #630e38;"/>
    <path d="m228.6,352.06l-.04-.08h0v-27.15h-.06l.02-.02-25.34-14.64-5.34,2.58-22.38-12.94-1.9-1.11-1.16.57-41.79,20.32-2.01.98v27.14l.58.34,22.9,13.23,1.91,1.1,1.16-.56,4.19-2.03,23.76,13.73.53.31.56-.27,43.7-21.14.71-.34h0v-.02Zm-97.68-6.54v-22.35l21.96,12.69v23.19l-21.96-12.69v-.84Zm24.28-9.6l47.88-23.13,21.84,12.62-69.73,33.8v-23.28h.01Zm71.05-8.57v22.01l-20.72-11.97,20.72-10.04Zm-72.15,6.52l-21.74-12.56,41.11-19.98,21.85,12.62-41.22,19.92Zm48.91,4.74l21.89,12.65-41.02,19.85-.16.08-.82-.48-21.04-12.15,41.14-19.94h.01Z" style="fill: #630e38;"/>
    <path d="m326.3,356.46l-.04-.08h.01v-27.15h-.06l.02-.02-25.34-14.64-5.34,2.58-22.38-12.94-1.9-1.11-1.16.57-41.79,20.32-2.01.98v27.14l.58.34,22.9,13.23,1.91,1.1,1.16-.56,4.19-2.03,23.76,13.73.53.31.56-.27,43.7-21.14.71-.34h0v-.02Zm-97.68-6.54v-22.35l21.96,12.69v23.19l-21.96-12.69v-.84Zm24.28-9.6l47.88-23.13,21.84,12.62-69.73,33.8v-23.28h.01Zm71.05-8.57v22.01l-20.72-11.97,20.72-10.04Zm-72.15,6.52l-21.74-12.56,41.11-19.98,21.85,12.62-41.22,19.92Zm48.91,4.74l21.89,12.65-41.02,19.85-.16.08-.82-.48-21.04-12.15,41.14-19.94h.01Z" style="fill: #630e38;"/>
    <path d="m424,360.86l-.04-.08h.01v-27.15h-.06l.02-.02-25.34-14.64-5.34,2.58-22.38-12.94-1.9-1.11-1.16.57-41.79,20.32-2.01.98v27.14l.58.34,22.9,13.23,1.91,1.1,1.16-.56,4.19-2.03,23.76,13.73.53.31.56-.27,43.7-21.14.71-.34h0v-.02Zm-97.68-6.54v-22.35l21.96,12.69v23.19l-21.96-12.69v-.84Zm24.28-9.6l47.88-23.13,21.84,12.62-69.73,33.8v-23.28h.01Zm71.05-8.57v22.01l-20.72-11.97,20.72-10.04Zm-72.15,6.52l-21.74-12.56,41.11-19.98,21.85,12.62-41.22,19.92h0Zm48.91,4.74l21.89,12.65-41.02,19.85-.16.08-.82-.48-21.04-12.15,41.14-19.94h.01Z" style="fill: #630e38;"/>
    <path d="m521.7,365.26l-.04-.08h.01v-27.15h-.06l.02-.02-25.34-14.64-5.34,2.58-22.38-12.94-1.9-1.11-1.16.57-41.79,20.32-2.01.98v27.14l.58.34,22.9,13.23,1.91,1.1,1.16-.56,4.19-2.03,23.76,13.73.53.31.56-.27,43.7-21.14.71-.34h0v-.02Zm-97.68-6.54v-22.35l21.96,12.69v23.19l-21.96-12.69v-.84Zm24.28-9.6l47.88-23.13,21.84,12.62-69.73,33.8v-23.28h.01Zm71.05-8.57v22.01l-20.72-11.97,20.72-10.04Zm-72.15,6.52l-21.74-12.56,41.11-19.98,21.85,12.62-41.22,19.92h0Zm48.91,4.74l21.89,12.65-41.02,19.85-.16.08-.82-.48-21.04-12.15,41.14-19.94h.01Z" style="fill: #630e38;"/>
    <path d="m619.4,369.67l-.04-.08h.01v-27.15h-.06l.02-.02-25.34-14.64-5.34,2.58-22.38-12.94-1.9-1.11-1.16.57-41.79,20.32-2.01.98v27.14l.58.34,22.9,13.23,1.91,1.1,1.16-.56,4.19-2.03,23.76,13.73.53.31.56-.27,43.7-21.14.71-.34h0v-.02Zm-97.68-6.54v-22.35l21.96,12.69v23.19l-21.96-12.69v-.84Zm24.28-9.6l47.88-23.13,21.84,12.62-69.73,33.8v-23.28h0Zm71.05-8.57v22.01l-20.72-11.97,20.72-10.04Zm-72.15,6.52l-21.74-12.56,41.11-19.98,21.85,12.62-41.22,19.92Zm48.91,4.74l21.89,12.65-41.02,19.85-.16.08-.82-.48-21.04-12.15,41.14-19.94h0Z" style="fill: #630e38;"/>
    <path d="m717.1,374.07l-.04-.08h.01v-27.15h-.06l.02-.02-25.34-14.64-5.34,2.58-22.38-12.94-1.9-1.11-1.16.57-41.79,20.32-2.01.98v27.14l.58.34,22.9,13.23,1.91,1.1,1.16-.56,4.19-2.03,23.76,13.73.53.31.56-.27,43.7-21.14.71-.34h0v-.02Zm-97.68-6.54v-22.35l21.96,12.69v23.19l-21.96-12.69v-.84Zm24.28-9.6l47.88-23.13,21.84,12.62-69.73,33.8v-23.28h0Zm71.05-8.57v22.01l-20.72-11.97,20.72-10.04Zm-72.15,6.52l-21.74-12.56,41.11-19.98,21.85,12.62-41.22,19.92Zm48.91,4.74l21.89,12.65-41.02,19.85-.16.08-.82-.48-21.04-12.15,41.14-19.94h0Z" style="fill: #630e38;"/>
    <path d="m814.8,378.47l-.04-.08h.01v-27.15h-.06l.02-.02-25.34-14.64-5.34,2.58-22.38-12.94-1.9-1.11-1.16.57-41.79,20.32-2.01.98v27.14l.58.34,22.9,13.23,1.91,1.1,1.16-.56,4.19-2.03,23.76,13.73.53.31.56-.27,43.7-21.14.71-.34h0v-.02Zm-97.68-6.54v-22.35l21.96,12.69v23.19l-21.96-12.69v-.84Zm24.28-9.6l47.88-23.13,21.84,12.62-69.73,33.8v-23.28h0Zm71.05-8.57v22.01l-20.72-11.97,20.72-10.04Zm-72.15,6.52l-21.74-12.56,41.11-19.98,21.85,12.62-41.22,19.92h0Zm48.91,4.74l21.89,12.65-41.02,19.85-.16.08-.82-.48-21.04-12.15,41.14-19.94h0Z" style="fill: #630e38;"/>
    <path d="m912.5,382.87l-.04-.08h.01v-27.15h-.06l.02-.02-25.34-14.64-5.34,2.58-22.38-12.94-1.9-1.11-1.16.57-41.79,20.32-2.01.98v27.14l.58.34,22.9,13.23,1.91,1.1,1.16-.56,4.19-2.03,23.76,13.73.53.31.56-.27,43.7-21.14.71-.34h0v-.02Zm-97.68-6.54v-22.35l21.96,12.69v23.19l-21.96-12.69v-.84Zm24.28-9.6l47.88-23.13,21.84,12.62-69.73,33.8v-23.28h0Zm71.05-8.57v22.01l-20.72-11.97,20.72-10.04Zm-72.15,6.52l-21.74-12.56,41.11-19.98,21.85,12.62-41.22,19.92Zm48.91,4.74l21.89,12.65-41.02,19.85-.16.08-.82-.48-21.04-12.15,41.14-19.94h0Z" style="fill: #630e38;"/>
    <path d="m184.9,398.91l-.04-.08h0v-27.15h-.06l.02-.02-25.34-14.64-5.34,2.58-22.38-12.94-1.9-1.11-1.16.57-41.79,20.32-2.01.98v27.14l.58.34,22.9,13.23,1.91,1.1,1.16-.56,4.19-2.03,23.76,13.73.53.31.56-.27,43.7-21.14.71-.34h0v-.02Zm-97.68-6.54v-22.35l21.96,12.69v23.19l-21.96-12.69v-.84Zm24.28-9.6l47.88-23.13,21.84,12.62-69.73,33.8v-23.28h.01Zm71.05-8.57v22.01l-20.72-11.97,20.72-10.04Zm-72.15,6.52l-21.74-12.56,41.11-19.98,21.85,12.62s-41.22,19.92-41.22,19.92Zm48.91,4.74l21.89,12.65-41.02,19.85-.16.08-.82-.48-21.04-12.15,41.14-19.94h.01Z" style="fill: #630e38;"/>
    <path d="m282.6,403.31l-.04-.08h.01v-27.15h-.06l.02-.02-25.34-14.64-5.34,2.58-22.38-12.94-1.9-1.11-1.16.57-41.79,20.32-2.01.98v27.14l.58.34,22.9,13.23,1.91,1.1,1.16-.56,4.19-2.03,23.76,13.73.53.31.56-.27,43.7-21.14.71-.34h0v-.02Zm-97.68-6.54v-22.35l21.96,12.69v23.19l-21.96-12.69v-.84Zm24.28-9.6l47.88-23.13,21.84,12.62-69.73,33.8v-23.28h.01Zm71.05-8.57v22.01l-20.72-11.97,20.72-10.04Zm-72.15,6.52l-21.74-12.56,41.11-19.98,21.85,12.62-41.22,19.92Zm48.91,4.74l21.89,12.65-41.02,19.85-.16.08-.82-.48-21.04-12.15,41.14-19.94h.01Z" style="fill: #630e38;"/>
    <path d="m380.3,407.71l-.04-.08h.01v-27.15h-.06l.02-.02-25.34-14.64-5.34,2.58-22.38-12.94-1.9-1.11-1.16.57-41.79,20.32-2.01.98v27.14l.58.34,22.9,13.23,1.91,1.1,1.16-.56,4.19-2.03,23.76,13.73.53.31.56-.27,43.7-21.14.71-.34h0v-.02Zm-97.68-6.54v-22.35l21.96,12.69v23.19l-21.96-12.69v-.84Zm24.28-9.6l47.88-23.13,21.84,12.62-69.73,33.8v-23.28h.01Zm71.05-8.57v22.01l-20.72-11.97,20.72-10.04Zm-72.15,6.52l-21.74-12.56,41.11-19.98,21.85,12.62-41.22,19.92h0Zm48.91,4.74l21.89,12.65-41.02,19.85-.16.08-.82-.48-21.04-12.15,41.14-19.94h.01Z" style="fill: #630e38;"/>
    <path d="m478,412.11l-.04-.08h.01v-27.15h-.06l.02-.02-25.34-14.64-5.34,2.58-22.38-12.94-1.9-1.11-1.16.57-41.79,20.32-2.01.98v27.14l.58.34,22.9,13.23,1.91,1.1,1.16-.56,4.19-2.03,23.76,13.73.53.31.56-.27,43.7-21.14.71-.34h0v-.02Zm-97.68-6.54v-22.35l21.96,12.69v23.19l-21.96-12.69v-.84Zm24.28-9.6l47.88-23.13,21.84,12.62-69.73,33.8v-23.28h.01Zm71.05-8.57v22.01l-20.72-11.97,20.72-10.04Zm-72.15,6.52l-21.74-12.56,41.11-19.98,21.85,12.62-41.22,19.92h0Zm48.91,4.74l21.89,12.65-41.02,19.85-.16.08-.82-.48-21.04-12.15,41.14-19.94h.01Z" style="fill: #630e38;"/>
    <path d="m575.7,416.51l-.04-.08h.01v-27.15h-.06l.02-.02-25.34-14.64-5.34,2.58-22.38-12.94-1.9-1.11-1.16.57-41.79,20.32-2.01.98v27.14l.58.34,22.9,13.23,1.91,1.1,1.16-.56,4.19-2.03,23.76,13.73.53.31.56-.27,43.7-21.14.71-.34h0v-.02Zm-97.68-6.54v-22.35l21.96,12.69v23.19l-21.96-12.69v-.84Zm24.28-9.6l47.88-23.13,21.84,12.62-69.73,33.8v-23.28h.01Zm71.05-8.57v22.01l-20.72-11.97,20.72-10.04Zm-72.15,6.52l-21.74-12.56,41.11-19.98,21.85,12.62-41.22,19.92Zm48.91,4.74l21.89,12.65-41.02,19.85-.16.08-.82-.48-21.04-12.15,41.14-19.94h.01Z" style="fill: #630e38;"/>
    <path d="m673.4,420.92l-.04-.08h.01v-27.15h-.06l.02-.02-25.34-14.64-5.34,2.58-22.38-12.94-1.9-1.11-1.16.57-41.79,20.32-2.01.98v27.14l.58.34,22.9,13.23,1.91,1.1,1.16-.56,4.19-2.03,23.76,13.73.53.31.56-.27,43.7-21.14.71-.34h0v-.02Zm-97.68-6.54v-22.35l21.96,12.69v23.19l-21.96-12.69v-.84Zm24.28-9.6l47.88-23.13,21.84,12.62-69.73,33.8v-23.28h0Zm71.05-8.57v22.01l-20.72-11.97,20.72-10.04Zm-72.15,6.52l-21.74-12.56,41.11-19.98,21.85,12.62-41.22,19.92Zm48.91,4.74l21.89,12.65-41.02,19.85-.16.08-.82-.48-21.04-12.15,41.14-19.94h0Z" style="fill: #630e38;"/>
    <path d="m771.1,425.32l-.04-.08h.01v-27.15h-.06l.02-.02-25.34-14.64-5.34,2.58-22.38-12.94-1.9-1.11-1.16.57-41.79,20.32-2.01.98v27.14l.58.34,22.9,13.23,1.91,1.1,1.16-.56,4.19-2.03,23.76,13.73.53.31.56-.27,43.7-21.14.71-.34h0v-.02Zm-97.68-6.54v-22.35l21.96,12.69v23.19l-21.96-12.69v-.84Zm24.28-9.6l47.88-23.13,21.84,12.62-69.73,33.8v-23.28h0Zm71.05-8.57v22.01l-20.72-11.97,20.72-10.04Zm-72.15,6.52l-21.74-12.56,41.11-19.98,21.85,12.62-41.22,19.92Zm48.91,4.74l21.89,12.65-41.02,19.85-.16.08-.82-.48-21.04-12.15,41.14-19.94h0Z" style="fill: #630e38;"/>
    <path d="m868.8,429.72l-.04-.08h.01v-27.15h-.06l.02-.02-25.34-14.64-5.34,2.58-22.38-12.94-1.9-1.11-1.16.57-41.79,20.32-2.01.98v27.14l.58.34,22.9,13.23,1.91,1.1,1.16-.56,4.19-2.03,23.76,13.73.53.31.56-.27,43.7-21.14.71-.34h0v-.02Zm-97.68-6.54v-22.35l21.96,12.69v23.19l-21.96-12.69v-.84Zm24.28-9.6l47.88-23.13,21.84,12.62-69.73,33.8v-23.28h0Zm71.05-8.57v22.01l-20.72-11.97,20.72-10.04Zm-72.15,6.52l-21.74-12.56,41.11-19.98,21.85,12.62-41.22,19.92h0Zm48.91,4.74l21.89,12.65-41.02,19.85-.16.08-.82-.48-21.04-12.15,41.14-19.94h0Z" style="fill: #630e38;"/>
    <path d="m238.9,450.16l-.04-.08h0v-27.15h-.06l.02-.02-25.34-14.64-5.34,2.58-22.38-12.94-1.9-1.11-1.16.57-41.79,20.32-2.01.98v27.14l.58.34,22.9,13.23,1.91,1.1,1.16-.56,4.19-2.03,23.76,13.73.53.31.56-.27,43.7-21.14.71-.34h0v-.02Zm-97.68-6.54v-22.35l21.96,12.69v23.19l-21.96-12.69v-.84Zm24.28-9.6l47.88-23.13,21.84,12.62-69.73,33.8v-23.28h.01Zm71.05-8.57v22.01l-20.72-11.97,20.72-10.04Zm-72.15,6.52l-21.74-12.56,41.11-19.98,21.85,12.62-41.22,19.92Zm48.91,4.74l21.89,12.65-41.02,19.85-.16.08-.82-.48-21.04-12.15,41.14-19.94h.01Z" style="fill: #630e38;"/>
    <path d="m336.6,454.56l-.04-.08h.01v-27.15h-.06l.02-.02-25.34-14.64-5.34,2.58-22.38-12.94-1.9-1.11-1.16.57-41.79,20.32-2.01.98v27.14l.58.34,22.9,13.23,1.91,1.1,1.16-.56,4.19-2.03,23.76,13.73.53.31.56-.27,43.7-21.14.71-.34h0v-.02Zm-97.68-6.54v-22.35l21.96,12.69v23.19l-21.96-12.69v-.84Zm24.28-9.6l47.88-23.13,21.84,12.62-69.73,33.8v-23.28h.01Zm71.05-8.57v22.01l-20.72-11.97,20.72-10.04Zm-72.15,6.52l-21.74-12.56,41.11-19.98,21.85,12.62-41.22,19.92Zm48.91,4.74l21.89,12.65-41.02,19.85-.16.08-.82-.48-21.04-12.15,41.14-19.94h.01Z" style="fill: #630e38;"/>
    <path d="m434.3,458.96l-.04-.08h.01v-27.15h-.06l.02-.02-25.34-14.64-5.34,2.58-22.38-12.94-1.9-1.11-1.16.57-41.79,20.32-2.01.98v27.14l.58.34,22.9,13.23,1.91,1.1,1.16-.56,4.19-2.03,23.76,13.73.53.31.56-.27,43.7-21.14.71-.34h0v-.02Zm-97.68-6.54v-22.35l21.96,12.69v23.19l-21.96-12.69v-.84Zm24.28-9.6l47.88-23.13,21.84,12.62-69.73,33.8v-23.28h.01Zm71.05-8.57v22.01l-20.72-11.97,20.72-10.04Zm-72.15,6.52l-21.74-12.56,41.11-19.98,21.85,12.62-41.22,19.92h0Zm48.91,4.74l21.89,12.65-41.02,19.85-.16.08-.82-.48-21.04-12.15,41.14-19.94h.01Z" style="fill: #630e38;"/>
    <path d="m532,463.36l-.04-.08h.01v-27.15h-.06l.02-.02-25.34-14.64-5.34,2.58-22.38-12.94-1.9-1.11-1.16.57-41.79,20.32-2.01.98v27.14l.58.34,22.9,13.23,1.91,1.1,1.16-.56,4.19-2.03,23.76,13.73.53.31.56-.27,43.7-21.14.71-.34h0v-.02Zm-97.68-6.54v-22.35l21.96,12.69v23.19l-21.96-12.69v-.84Zm24.28-9.6l47.88-23.13,21.84,12.62-69.73,33.8v-23.28h.01Zm71.05-8.57v22.01l-20.72-11.97,20.72-10.04Zm-72.15,6.52l-21.74-12.56,41.11-19.98,21.85,12.62-41.22,19.92h0Zm48.91,4.74l21.89,12.65-41.02,19.85-.16.08-.82-.48-21.04-12.15,41.14-19.94h.01Z" style="fill: #630e38;"/>
    <path d="m727.4,472.17l-.04-.08h.01v-27.15h-.06l.02-.02-25.34-14.64-5.34,2.58-22.38-12.94-1.9-1.11-1.16.57-41.79,20.32-2.01.98v27.14l.58.34,22.9,13.23,1.91,1.1,1.16-.56,4.19-2.03,23.76,13.73.53.31.56-.27,43.7-21.14.71-.34h0v-.02Zm-97.68-6.54v-22.35l21.96,12.69v23.19l-21.96-12.69v-.84Zm24.28-9.6l47.88-23.13,21.84,12.62-69.73,33.8v-23.28h0Zm71.05-8.57v22.01l-20.72-11.97,20.72-10.04Zm-72.15,6.52l-21.74-12.56,41.11-19.98,21.85,12.62-41.22,19.92Zm48.91,4.74l21.89,12.65-41.02,19.85-.16.08-.82-.48-21.04-12.15,41.14-19.94h0Z" style="fill: #630e38;"/>
    <path d="m825.1,476.57l-.04-.08h.01v-27.15h-.06l.02-.02-25.34-14.64-5.34,2.58-22.38-12.94-1.9-1.11-1.16.57-41.79,20.32-2.01.98v27.14l.58.34,22.9,13.23,1.91,1.1,1.16-.56,4.19-2.03,23.76,13.73.53.31.56-.27,43.7-21.14.71-.34h0v-.02Zm-97.68-6.54v-22.35l21.96,12.69v23.19l-21.96-12.69v-.84Zm24.28-9.6l47.88-23.13,21.84,12.62-69.73,33.8v-23.28h0Zm71.05-8.57v22.01l-20.72-11.97,20.72-10.04Zm-72.15,6.52l-21.74-12.56,41.11-19.98,21.85,12.62-41.22,19.92Zm48.91,4.74l21.89,12.65-41.02,19.85-.16.08-.82-.48-21.04-12.15,41.14-19.94h0Z" style="fill: #630e38;"/>
    <path d="m922.8,480.97l-.04-.08h.01v-27.15h-.06l.02-.02-25.34-14.64-5.34,2.58-22.38-12.94-1.9-1.11-1.16.57-41.79,20.32-2.01.98v27.14l.58.34,22.9,13.23,1.91,1.1,1.16-.56,4.19-2.03,23.76,13.73.53.31.56-.27,43.7-21.14.71-.34h0v-.02Zm-97.68-6.54v-22.35l21.96,12.69v23.19l-21.96-12.69v-.84Zm24.28-9.6l47.88-23.13,21.84,12.62-69.73,33.8v-23.28h0Zm71.05-8.57v22.01l-20.72-11.97,20.72-10.04Zm-72.15,6.52l-21.74-12.56,41.11-19.98,21.85,12.62-41.22,19.92h0Zm48.91,4.74l21.89,12.65-41.02,19.85-.16.08-.82-.48-21.04-12.15,41.14-19.94h0Z" style="fill: #630e38;"/>
    <path d="m488.3,510.21l-.04-.08h.01v-27.15h-.06l.02-.02-25.34-14.64-5.34,2.58-22.38-12.94-1.9-1.11-1.16.57-41.79,20.32-2.01.98v27.14l.58.34,22.9,13.23,1.91,1.1,1.16-.56,4.19-2.03,23.76,13.73.53.31.56-.27,43.7-21.14.71-.34h0v-.02Zm-97.68-6.54v-22.35l21.96,12.69v23.19l-21.96-12.69v-.84h0Zm24.28-9.6l47.88-23.13,21.84,12.62-69.73,33.8v-23.28h.01Zm71.05-8.57v22.01l-20.72-11.97,20.72-10.04Zm-72.15,6.52l-21.74-12.56,41.11-19.98,21.85,12.62-41.22,19.92h0Zm48.91,4.74l21.89,12.65-41.02,19.85-.16.08-.82-.48-21.04-12.15,41.14-19.94h.01Z" style="fill: #630e38;"/>
    <path d="m586,514.61l-.04-.08h.01v-27.15h-.06l.02-.02-25.34-14.64-5.34,2.58-22.38-12.94-1.9-1.11-1.16.57-41.79,20.32-2.01.98v27.14l.58.34,22.9,13.23,1.91,1.1,1.16-.56,4.19-2.03,23.76,13.73.53.31.56-.27,43.7-21.14.71-.34h0v-.02Zm-97.68-6.54v-22.35l21.96,12.69v23.19l-21.96-12.69v-.84Zm24.28-9.6l47.88-23.13,21.84,12.62-69.73,33.8v-23.28h0Zm71.05-8.57v22.01l-20.72-11.97,20.72-10.04Zm-72.15,6.52l-21.74-12.56,41.11-19.98,21.85,12.62-41.22,19.92Zm48.91,4.74l21.89,12.65-41.02,19.85-.16.08-.82-.48-21.04-12.15,41.14-19.94h0Z" style="fill: #630e38;"/>
    <path d="m781.4,523.42l-.04-.08h.01v-27.15h-.06l.02-.02-25.34-14.64-5.34,2.58-22.38-12.94-1.9-1.11-1.16.57-41.79,20.32-2.01.98v27.14l.58.34,22.9,13.23,1.91,1.1,1.16-.56,4.19-2.03,23.76,13.73.53.31.56-.27,43.7-21.14.71-.34h0v-.02Zm-97.68-6.54v-22.35l21.96,12.69v23.19l-21.96-12.69v-.84h0Zm24.28-9.6l47.88-23.13,21.84,12.62-69.73,33.8v-23.28h0Zm71.05-8.57v22.01l-20.72-11.97,20.72-10.04h0Zm-72.15,6.52l-21.74-12.56,41.11-19.98,21.85,12.62-41.22,19.92Zm48.91,4.74l21.89,12.65-41.02,19.85-.16.08-.82-.48-21.04-12.15,41.14-19.94h0Z" style="fill: #630e38;"/>
    <path d="m879.1,527.82l-.04-.08h.01v-27.15h-.06l.02-.02-25.34-14.64-5.34,2.58-22.38-12.94-1.9-1.11-1.16.57-41.79,20.32-2.01.98v27.14l.58.34,22.9,13.23,1.91,1.1,1.16-.56,4.19-2.03,23.76,13.73.53.31.56-.27,43.7-21.14.71-.34h0v-.02Zm-97.68-6.54v-22.35l21.96,12.69v23.19l-21.96-12.69v-.84h0Zm24.28-9.6l47.88-23.13,21.84,12.62-69.73,33.8v-23.28h0Zm71.05-8.57v22.01l-20.72-11.97,20.72-10.04Zm-72.15,6.52l-21.74-12.56,41.11-19.98,21.85,12.62-41.22,19.92Zm48.91,4.74l21.89,12.65-41.02,19.85-.16.08-.82-.48-21.04-12.15,41.14-19.94h0Z" style="fill: #630e38;"/>
    <path d="m976.8,532.22l-.04-.08h.01v-27.15h-.06l.02-.02-25.34-14.64-5.34,2.58-22.38-12.94-1.9-1.11-1.16.57-41.79,20.32-2.01.98v27.14l.58.34,22.9,13.23,1.91,1.1,1.16-.56,4.19-2.03,23.76,13.73.53.31.56-.27,43.7-21.14.71-.34h0v-.02Zm-97.68-6.54v-22.35l21.96,12.69v23.19l-21.96-12.69v-.84h0Zm24.28-9.6l47.88-23.13,21.84,12.62-69.73,33.8v-23.28h0Zm71.05-8.57v22.01l-20.72-11.97,20.72-10.04h0Zm-72.15,6.52l-21.74-12.56,41.11-19.98,21.85,12.62-41.22,19.92h0Zm48.91,4.74l21.89,12.65-41.02,19.85-.16.08-.82-.48-21.04-12.15,41.14-19.94h0Z" style="fill: #630e38;"/>
    <path d="m444.6,557.06l-.04-.08h.01v-27.15h-.06l.02-.02-25.34-14.64-5.34,2.58-22.38-12.94-1.9-1.11-1.16.57-41.79,20.32-2.01.98v27.14l.58.34,22.9,13.23,1.91,1.1,1.16-.56,4.19-2.03,23.76,13.73.53.31.56-.27,43.7-21.14.71-.34h0v-.02Zm-97.68-6.54v-22.35l21.96,12.69v23.19l-21.96-12.69v-.84Zm24.28-9.6l47.88-23.13,21.84,12.62-69.73,33.8v-23.28h.01Zm71.05-8.57v22.01l-20.72-11.97,20.72-10.04h0Zm-72.15,6.52l-21.74-12.56,41.11-19.98,21.85,12.62-41.22,19.92h0Zm48.91,4.74l21.89,12.65-41.02,19.85-.16.08-.82-.48-21.04-12.15,41.14-19.94h.01Z" style="fill: #630e38;"/>
    <path d="m542.3,561.46l-.04-.08h.01v-27.15h-.06l.02-.02-25.34-14.64-5.34,2.58-22.38-12.94-1.9-1.11-1.16.57-41.79,20.32-2.01.98v27.14l.58.34,22.9,13.23,1.91,1.1,1.16-.56,4.19-2.03,23.76,13.73.53.31.56-.27,43.7-21.14.71-.34h0v-.02Zm-97.68-6.54v-22.35l21.96,12.69v23.19l-21.96-12.69v-.84Zm24.28-9.6l47.88-23.13,21.84,12.62-69.73,33.8v-23.28h.01Zm71.05-8.57v22.01l-20.72-11.97,20.72-10.04h0Zm-72.15,6.52l-21.74-12.56,41.11-19.98,21.85,12.62-41.22,19.92h0Zm48.91,4.74l21.89,12.65-41.02,19.85-.16.08-.82-.48-21.04-12.15,41.14-19.94h.01Z" style="fill: #630e38;"/>
    <path d="m737.7,570.26l-.04-.08h.01v-27.15h-.06l.02-.02-25.34-14.64-5.34,2.58-22.38-12.94-1.9-1.11-1.16.57-41.79,20.32-2.01.98v27.14l.58.34,22.9,13.23,1.91,1.1,1.16-.56,4.19-2.03,23.76,13.73.53.31.56-.27,43.7-21.14.71-.34h0v-.02Zm-97.68-6.54v-22.35l21.96,12.69v23.19l-21.96-12.69v-.84Zm24.28-9.6l47.88-23.13,21.84,12.62-69.73,33.8v-23.28h0Zm71.05-8.57v22.01l-20.72-11.97,20.72-10.04h0Zm-72.15,6.52l-21.74-12.56,41.11-19.98,21.85,12.62-41.22,19.92h0Zm48.91,4.74l21.89,12.65-41.02,19.85-.16.08-.82-.48-21.04-12.15,41.14-19.94h0Z" style="fill: #630e38;"/>
    <path d="m835.4,574.67l-.04-.08h.01v-27.15h-.06l.02-.02-25.34-14.64-5.34,2.58-22.38-12.94-1.9-1.11-1.16.57-41.79,20.32-2.01.98v27.14l.58.34,22.9,13.23,1.91,1.1,1.16-.56,4.19-2.03,23.76,13.73.53.31.56-.27,43.7-21.14.71-.34h0v-.02Zm-97.68-6.54v-22.35l21.96,12.69v23.19l-21.96-12.69v-.84Zm24.28-9.6l47.88-23.13,21.84,12.62-69.73,33.8v-23.28h0Zm71.05-8.57v22.01l-20.72-11.97,20.72-10.04h0Zm-72.15,6.52l-21.74-12.56,41.11-19.98,21.85,12.62-41.22,19.92Zm48.91,4.74l21.89,12.65-41.02,19.85-.16.08-.82-.48-21.04-12.15,41.14-19.94h0Z" style="fill: #630e38;"/>
    <path d="m933.1,579.07l-.04-.08h.01v-27.15h-.06l.02-.02-25.34-14.64-5.34,2.58-22.38-12.94-1.9-1.11-1.16.57-41.79,20.32-2.01.98v27.14l.58.34,22.9,13.23,1.91,1.1,1.16-.56,4.19-2.03,23.76,13.73.53.31.56-.27,43.7-21.14.71-.34h0v-.02Zm-97.68-6.54v-22.35l21.96,12.69v23.19l-21.96-12.69v-.84Zm24.28-9.6l47.88-23.13,21.84,12.62-69.73,33.8v-23.28h0Zm71.05-8.57v22.01l-20.72-11.97,20.72-10.04h0Zm-72.15,6.52l-21.74-12.56,41.11-19.98,21.85,12.62-41.22,19.92Zm48.91,4.74l21.89,12.65-41.02,19.85-.16.08-.82-.48-21.04-12.15,41.14-19.94h0Z" style="fill: #630e38;"/>
    <path d="m1030.8,583.47l-.04-.08h.01v-27.15h-.06l.02-.02-25.34-14.64-5.34,2.58-22.38-12.94-1.9-1.11-1.16.57-41.79,20.32-2.01.98v27.14l.58.34,22.9,13.23,1.91,1.1,1.16-.56,4.19-2.03,23.76,13.73.53.31.56-.27,43.7-21.14.71-.34h0v-.02Zm-97.68-6.54v-22.35l21.96,12.69v23.19l-21.96-12.69v-.84Zm24.28-9.6l47.88-23.13,21.84,12.62-69.73,33.8v-23.28h0Zm71.05-8.57v22.01l-20.72-11.97,20.72-10.04h0Zm-72.15,6.52l-21.74-12.56,41.11-19.98,21.85,12.62-41.22,19.92Zm48.91,4.74l21.89,12.65-41.02,19.85-.16.08-.82-.48-21.04-12.15,41.14-19.94h.01Z" style="fill: #630e38;"/>
    <path d="m1128.5,587.87l-.04-.08h.01v-27.15h-.06l.02-.02-25.34-14.64-5.34,2.58-22.38-12.94-1.9-1.11-1.16.57-41.79,20.32-2.01.98v27.14l.58.34,22.9,13.23,1.91,1.1,1.16-.56,4.19-2.03,23.76,13.73.53.31.56-.27,43.7-21.14.71-.34h0v-.02Zm-97.68-6.54v-22.35l21.96,12.69v23.19l-21.96-12.69v-.84Zm24.28-9.6l47.88-23.13,21.84,12.62-69.73,33.8v-23.28h.01Zm71.05-8.57v22.01l-20.72-11.97,20.72-10.04h0Zm-72.15,6.52l-21.74-12.56,41.11-19.98,21.85,12.62-41.22,19.92Zm48.91,4.74l21.89,12.65-41.02,19.85-.16.08-.82-.48-21.04-12.15,41.14-19.94h.01Z" style="fill: #630e38;"/>
    <path d="m498.6,608.31l-.04-.08h.01v-27.15h-.06l.02-.02-25.34-14.64-5.34,2.58-22.38-12.94-1.9-1.11-1.16.57-41.79,20.32-2.01.98v27.14l.58.34,22.9,13.23,1.91,1.1,1.16-.56,4.19-2.03,23.76,13.73.53.31.56-.27,43.7-21.14.71-.34h0v-.02Zm-97.68-6.54v-22.35l21.96,12.69v23.19l-21.96-12.69v-.84Zm24.28-9.6l47.88-23.13,21.84,12.62-69.73,33.8v-23.28h.01Zm71.05-8.57v22.01l-20.72-11.97,20.72-10.04h0Zm-72.15,6.52l-21.74-12.56,41.11-19.98,21.85,12.62-41.22,19.92h0Zm48.91,4.74l21.89,12.65-41.02,19.85-.16.08-.82-.48-21.04-12.15,41.14-19.94h.01Z" style="fill: #630e38;"/>
    <path d="m694,617.11l-.04-.08h.01v-27.15h-.06l.02-.02-25.34-14.64-5.34,2.58-22.38-12.94-1.9-1.11-1.16.57-41.79,20.32-2.01.98v27.14l.58.34,22.9,13.23,1.91,1.1,1.16-.56,4.19-2.03,23.76,13.73.53.31.56-.27,43.7-21.14.71-.34h0v-.02Zm-97.68-6.54v-22.35l21.96,12.69v23.19l-21.96-12.69v-.84Zm24.28-9.6l47.88-23.13,21.84,12.62-69.73,33.8v-23.28h0Zm71.05-8.57v22.01l-20.72-11.97,20.72-10.04h0Zm-72.15,6.52l-21.74-12.56,41.11-19.98,21.85,12.62-41.22,19.92Zm48.91,4.74l21.89,12.65-41.02,19.85-.16.08-.82-.48-21.04-12.15,41.14-19.94h0Z" style="fill: #630e38;"/>
    <path d="m791.7,621.51l-.04-.08h.01v-27.15h-.06l.02-.02-25.34-14.64-5.34,2.58-22.38-12.94-1.9-1.11-1.16.57-41.79,20.32-2.01.98v27.14l.58.34,22.9,13.23,1.91,1.1,1.16-.56,4.19-2.03,23.76,13.73.53.31.56-.27,43.7-21.14.71-.34h0v-.02Zm-97.68-6.54v-22.35l21.96,12.69v23.19l-21.96-12.69v-.84Zm24.28-9.6l47.88-23.13,21.84,12.62-69.73,33.8v-23.28h0Zm71.05-8.57v22.01l-20.72-11.97,20.72-10.04h0Zm-72.15,6.52l-21.74-12.56,41.11-19.98,21.85,12.62-41.22,19.92h0Zm48.91,4.74l21.89,12.65-41.02,19.85-.16.08-.82-.48-21.04-12.15,41.14-19.94h0Z" style="fill: #630e38;"/>
    <path d="m889.4,625.92l-.04-.08h.01v-27.15h-.06l.02-.02-25.34-14.64-5.34,2.58-22.38-12.94-1.9-1.11-1.16.57-41.79,20.32-2.01.98v27.14l.58.34,22.9,13.23,1.91,1.1,1.16-.56,4.19-2.03,23.76,13.73.53.31.56-.27,43.7-21.14.71-.34h0v-.02Zm-97.68-6.54v-22.35l21.96,12.69v23.19l-21.96-12.69v-.84Zm24.28-9.6l47.88-23.13,21.84,12.62-69.73,33.8v-23.28h0Zm71.05-8.57v22.01l-20.72-11.97,20.72-10.04h0Zm-72.15,6.52l-21.74-12.56,41.11-19.98,21.85,12.62-41.22,19.92Zm48.91,4.74l21.89,12.65-41.02,19.85-.16.08-.82-.48-21.04-12.15,41.14-19.94h0Z" style="fill: #630e38;"/>
    <path d="m987.1,630.32l-.04-.08h.01v-27.15h-.06l.02-.02-25.34-14.64-5.34,2.58-22.38-12.94-1.9-1.11-1.16.57-41.79,20.32-2.01.98v27.14l.58.34,22.9,13.23,1.91,1.1,1.16-.56,4.19-2.03,23.76,13.73.53.31.56-.27,43.7-21.14.71-.34h0v-.02Zm-97.68-6.54v-22.35l21.96,12.69v23.19l-21.96-12.69v-.84Zm24.28-9.6l47.88-23.13,21.84,12.62-69.73,33.8v-23.28h0Zm71.05-8.57v22.01l-20.72-11.97,20.72-10.04h0Zm-72.15,6.52l-21.74-12.56,41.11-19.98,21.85,12.62-41.22,19.92Zm48.91,4.74l21.89,12.65-41.02,19.85-.16.08-.82-.48-21.04-12.15,41.14-19.94h0Z" style="fill: #630e38;"/>
    <path d="m1084.8,634.72l-.04-.08h.01v-27.15h-.06l.02-.02-25.34-14.64-5.34,2.58-22.38-12.94-1.9-1.11-1.16.57-41.79,20.32-2.01.98v27.14l.58.34,22.9,13.23,1.91,1.1,1.16-.56,4.19-2.03,23.76,13.73.53.31.56-.27,43.7-21.14.71-.34h0v-.02Zm-97.68-6.54v-22.35l21.96,12.69v23.19l-21.96-12.69v-.84Zm24.28-9.6l47.88-23.13,21.84,12.62-69.73,33.8v-23.28h.01Zm71.05-8.57v22.01l-20.72-11.97,20.72-10.04h0Zm-72.15,6.52l-21.74-12.56,41.11-19.98,21.85,12.62-41.22,19.92Zm48.91,4.74l21.89,12.65-41.02,19.85-.16.08-.82-.48-21.04-12.15,41.14-19.94h.01Z" style="fill: #630e38;"/>
  </g>
</svg>